<svg width="568" height="221" viewBox="0 0 568 221" fill="none" xmlns="http://www.w3.org/2000/svg">
<path d="M520.438 128.598C537.758 95.1256 499.495 60.9579 445.028 59.5633C444.442 43.1292 435.222 25.6658 418.956 13.5217C391.274 -7.14934 354.698 -3.85543 341.361 21.5882C302.914 3.13305 257.389 20.6762 237.499 63.8999C237.371 64.0504 237.24 64.2054 237.109 64.3559C205.882 51.8333 168.075 64.4444 156.774 91.1211C97.4837 58.8682 0.0234375 83.3158 0.0234375 128.966C0.0234375 169.199 77.9527 195.196 140.278 173.98C164.384 221.27 218.685 231.19 236.237 192.539C260.218 220.892 296.404 228.19 326.643 213.693C351.083 225.41 380.6 223.285 404.361 204.772C461.839 238.134 567.133 216.431 567.133 171.439C567.133 153.139 548.35 137.167 520.438 128.598Z" fill="#FFD5A8"/>
<path d="M524.583 112.166C512.667 95.6348 483.391 83.7497 448.768 83.0037C448.17 68.739 438.715 53.5711 422.056 43.0319C393.73 25.1102 356.262 27.9016 342.524 50.0292C303.026 33.9759 256.413 49.3076 236.083 86.7758C235.937 86.8997 235.813 87.0348 235.678 87.1698C204.226 76.5 165.149 86.8067 153.348 110.406C104.94 88.1283 25.9257 96.4073 0.236328 125.47C5.31001 81.5936 99.587 60.015 156.768 91.1211C168.133 64.3095 206.068 51.8909 237.116 64.3604C237.24 64.2054 237.375 64.0438 237.499 63.8999C257.482 20.4682 303.112 3.21502 341.361 21.5883C354.604 -3.76018 391.18 -7.22011 418.956 13.5218C435.222 25.6658 444.442 43.1359 445.029 59.5634C489.262 60.6946 524.583 83.8073 524.583 112.166Z" fill="#FFF8F1"/>
<path d="M567.134 171.439C567.134 216.006 462.391 238.446 404.367 204.772C380.585 223.285 351.075 225.416 326.643 213.688C296.405 228.201 260.209 220.883 236.233 192.539C218.876 230.835 164.784 221.795 140.278 173.976C74.8785 196.249 -7.15037 166.438 0.49778 123.589C7.47519 144.844 83.2594 156.016 140.278 145.331C164.421 171.335 218.763 176.718 236.233 155.525C260.836 171.496 297.204 174.883 326.643 167.138C351.281 173.617 380.74 172.342 404.367 162.237C421.48 167.698 451.052 183.997 478.464 183.997C518.664 183.997 549.965 168.851 561.89 155.062C565.281 160.182 567.134 165.692 567.134 171.439Z" fill="#FFB86C"/>
<path d="M524.572 111.637C524.572 111.367 524.572 111.101 524.561 110.849C524.592 111.082 524.587 111.518 524.572 111.637Z" fill="#FFB86C"/>
<path d="M499.631 199.439C462.221 204.101 410.193 178.711 390.926 146.489C420.015 171.791 461.758 192.13 499.631 199.439Z" fill="#FFB86C"/>
<path d="M176.342 127.208C161.079 153.134 122.453 164.399 95.7031 150.856C123.36 153.174 154.329 144.098 176.342 127.208Z" fill="#FFB86C"/>
<path d="M370.969 146.847C348.706 182.098 307.931 181.969 285.799 146.847C312.026 163.985 344.735 163.985 370.969 146.847Z" fill="#FFB86C"/>
<path d="M413.559 75.7471C391.296 110.997 350.514 110.869 328.389 75.7471C354.616 92.8851 387.325 92.8895 413.559 75.7471Z" fill="#FFB86C"/>
</svg>
