<svg width="321" height="221" viewBox="0 0 321 221" fill="none" xmlns="http://www.w3.org/2000/svg">
<path d="M273.438 128.598C290.758 95.1256 252.495 60.9579 198.028 59.5633C197.442 43.1292 188.222 25.6658 171.956 13.5217C144.274 -7.14934 107.698 -3.85543 94.3611 21.5882C55.9145 3.13305 10.3886 20.6762 -9.50098 63.8999C-9.62936 64.0504 -9.75998 64.2054 -9.89058 64.3559C-41.1185 51.8333 -78.9254 64.4444 -90.226 91.1211C-149.516 58.8682 -246.977 83.3158 -246.977 128.966C-246.977 169.199 -169.047 195.196 -106.722 173.98C-82.6155 221.27 -28.3148 231.19 -10.7628 192.539C13.2177 220.892 49.4042 228.19 79.6426 213.693C104.083 225.41 133.6 223.285 157.361 204.772C214.839 238.134 320.133 216.431 320.133 171.439C320.133 153.139 301.35 137.167 273.438 128.598Z" fill="#FFD5A8"/>
</svg>
