<svg width="376" height="221" viewBox="0 0 376 221" fill="none" xmlns="http://www.w3.org/2000/svg">
<path d="M520.438 128.598C537.758 95.1256 499.495 60.9579 445.028 59.5633C444.442 43.1292 435.222 25.6658 418.956 13.5217C391.274 -7.14934 354.698 -3.85543 341.361 21.5882C302.914 3.13305 257.389 20.6762 237.499 63.8999C237.371 64.0504 237.24 64.2054 237.109 64.3559C205.882 51.8333 168.075 64.4444 156.774 91.1211C97.4837 58.8682 0.0234375 83.3158 0.0234375 128.966C0.0234375 169.199 77.9527 195.196 140.278 173.98C164.384 221.27 218.685 231.19 236.237 192.539C260.218 220.892 296.404 228.19 326.643 213.693C351.083 225.41 380.6 223.285 404.361 204.772C461.839 238.134 567.133 216.431 567.133 171.439C567.133 153.139 548.35 137.167 520.438 128.598Z" fill="#FFD5A8"/>
</svg>
