<svg width="24" height="25" viewBox="0 0 24 25" fill="none" xmlns="http://www.w3.org/2000/svg">
<path d="M12 2.88391C10.0716 2.88391 8.18657 3.45574 6.58319 4.52708C4.97982 5.59843 3.73013 7.12117 2.99218 8.90275C2.25422 10.6843 2.06114 12.6447 2.43735 14.536C2.81355 16.4274 3.74215 18.1646 5.10571 19.5282C6.46928 20.8918 8.20656 21.8204 10.0979 22.1966C11.9892 22.5728 13.9496 22.3797 15.7312 21.6417C17.5127 20.9038 19.0355 19.6541 20.1068 18.0507C21.1782 16.4473 21.75 14.5623 21.75 12.6339C21.7473 10.0489 20.7192 7.57052 18.8913 5.74263C17.0634 3.91475 14.585 2.88664 12 2.88391ZM12.75 20.8492V14.8839H15C15.1989 14.8839 15.3897 14.8049 15.5303 14.6642C15.671 14.5236 15.75 14.3328 15.75 14.1339C15.75 13.935 15.671 13.7442 15.5303 13.6036C15.3897 13.4629 15.1989 13.3839 15 13.3839H12.75V11.1339C12.75 10.7361 12.908 10.3546 13.1893 10.0733C13.4706 9.79195 13.8522 9.63391 14.25 9.63391H15.75C15.9489 9.63391 16.1397 9.55489 16.2803 9.41424C16.421 9.27359 16.5 9.08282 16.5 8.88391C16.5 8.685 16.421 8.49423 16.2803 8.35358C16.1397 8.21293 15.9489 8.13391 15.75 8.13391H14.25C13.4544 8.13391 12.6913 8.44998 12.1287 9.01259C11.5661 9.5752 11.25 10.3383 11.25 11.1339V13.3839H9C8.80109 13.3839 8.61033 13.4629 8.46967 13.6036C8.32902 13.7442 8.25 13.935 8.25 14.1339C8.25 14.3328 8.32902 14.5236 8.46967 14.6642C8.61033 14.8049 8.80109 14.8839 9 14.8839H11.25V20.8492C9.13575 20.6562 7.17728 19.6556 5.78198 18.0554C4.38667 16.4553 3.66195 14.3788 3.75855 12.258C3.85515 10.1371 4.76564 8.13518 6.30064 6.66851C7.83563 5.20184 9.87696 4.38339 12 4.38339C14.1231 4.38339 16.1644 5.20184 17.6994 6.66851C19.2344 8.13518 20.1449 10.1371 20.2415 12.258C20.3381 14.3788 19.6133 16.4553 18.218 18.0554C16.8227 19.6556 14.8643 20.6562 12.75 20.8492Z" fill="#522F11"/>
</svg>
