<svg width="68" height="68" viewBox="0 0 68 68" fill="none" xmlns="http://www.w3.org/2000/svg">
<path d="M31.625 67.375C30.7917 67.375 30.0833 67.125 29.5 66.625C29 66.0417 28.75 65.3333 28.75 64.5V38.5H3.125C2.29167 38.5 1.58333 38.25 1 37.75C0.5 37.1667 0.25 36.4583 0.25 35.625V31.625C0.25 30.7917 0.5 30.125 1 29.625C1.58333 29.0417 2.29167 28.75 3.125 28.75H28.75V3.5C28.75 2.66666 29 2 29.5 1.5C30.0833 0.916664 30.7917 0.624996 31.625 0.624996H36C36.8333 0.624996 37.5 0.916664 38 1.5C38.5833 2 38.875 2.66666 38.875 3.5V28.75H64.625C65.4583 28.75 66.125 29.0417 66.625 29.625C67.2083 30.125 67.5 30.7917 67.5 31.625V35.625C67.5 36.4583 67.2083 37.1667 66.625 37.75C66.125 38.25 65.4583 38.5 64.625 38.5H38.875V64.5C38.875 65.3333 38.5833 66.0417 38 66.625C37.5 67.125 36.8333 67.375 36 67.375H31.625Z" fill="#522F11"/>
</svg>
