<svg width="24" height="25" viewBox="0 0 24 25" fill="none" xmlns="http://www.w3.org/2000/svg">
<path d="M12 4.63391C12.855 4.63391 13.732 4.65591 14.582 4.69191L15.586 4.73991L16.547 4.79691L17.447 4.85791L18.269 4.92191C19.1612 4.9898 20.0008 5.37035 20.64 5.99651C21.2791 6.62268 21.6768 7.45431 21.763 8.34491L21.803 8.76991L21.878 9.67991C21.948 10.6229 22 11.6509 22 12.6339C22 13.6169 21.948 14.6449 21.878 15.5879L21.803 16.4979L21.763 16.9229C21.6768 17.8137 21.2789 18.6454 20.6396 19.2716C20.0002 19.8978 19.1604 20.2782 18.268 20.3459L17.448 20.4089L16.548 20.4709L15.586 20.5279L14.582 20.5759C13.7218 20.6132 12.861 20.6325 12 20.6339C11.139 20.6325 10.2782 20.6132 9.418 20.5759L8.414 20.5279L7.453 20.4709L6.553 20.4089L5.731 20.3459C4.83881 20.278 3.9992 19.8975 3.36004 19.2713C2.72089 18.6451 2.32319 17.8135 2.237 16.9229L2.197 16.4979L2.122 15.5879C2.04583 14.605 2.00514 13.6197 2 12.6339C2 11.6509 2.052 10.6229 2.122 9.67991L2.197 8.76991L2.237 8.34491C2.32316 7.45446 2.72071 6.62296 3.35966 5.99682C3.99861 5.37067 4.83799 4.99003 5.73 4.92191L6.551 4.85791L7.451 4.79691L8.413 4.73991L9.417 4.69191C10.2775 4.65464 11.1387 4.6353 12 4.63391ZM12 6.63391C11.175 6.63391 10.326 6.65591 9.5 6.68991L8.522 6.73691L7.583 6.79191L6.701 6.85191L5.893 6.91491C5.46819 6.94465 5.06769 7.12404 4.76266 7.42119C4.45763 7.71835 4.26784 8.11403 4.227 8.53791C4.11 9.74691 4 11.2519 4 12.6339C4 14.0159 4.11 15.5209 4.227 16.7299C4.312 17.6019 5.004 18.2799 5.893 18.3529L6.701 18.4149L7.583 18.4749L8.522 18.5309L9.5 18.5779C10.326 18.6119 11.175 18.6339 12 18.6339C12.825 18.6339 13.674 18.6119 14.5 18.5779L15.478 18.5309L16.417 18.4759L17.299 18.4159L18.107 18.3529C18.5318 18.3232 18.9323 18.1438 19.2373 17.8466C19.5424 17.5495 19.7322 17.1538 19.773 16.7299C19.89 15.5209 20 14.0159 20 12.6339C20 11.2519 19.89 9.74691 19.773 8.53791C19.7322 8.11403 19.5424 7.71835 19.2373 7.42119C18.9323 7.12404 18.5318 6.94465 18.107 6.91491L17.299 6.85291L16.417 6.79291L15.478 6.73691L14.5 6.68991C13.6671 6.65416 12.8336 6.63549 12 6.63391ZM10 10.2089C9.99994 10.1112 10.0237 10.0149 10.0694 9.92846C10.115 9.84203 10.181 9.76804 10.2618 9.71295C10.3425 9.65785 10.4354 9.6233 10.5326 9.61232C10.6297 9.60133 10.728 9.61424 10.819 9.64991L10.9 9.68991L15.1 12.1139C15.1836 12.1622 15.2544 12.2299 15.3063 12.3113C15.3581 12.3928 15.3896 12.4856 15.3979 12.5818C15.4062 12.678 15.3912 12.7747 15.3542 12.8639C15.3171 12.9531 15.2591 13.032 15.185 13.0939L15.1 13.1539L10.9 15.5789C10.8154 15.6279 10.72 15.6555 10.6223 15.6592C10.5246 15.663 10.4274 15.6428 10.3393 15.6004C10.2511 15.558 10.1747 15.4947 10.1166 15.416C10.0585 15.3373 10.0205 15.2456 10.006 15.1489L10 15.0589V10.2089Z" fill="#522F11"/>
</svg>
